# xmcd
#
# Track frame offsets: 
#        150
#        11167
#        24722
#        37394
#        46651
#        61953
#        72607
#        90483
#        108347
#        117264
#        126441
#        140541
#        150588
#        162753
#        173016
#        182722
#
# Disc length: 2576 seconds
#
# Revision: 5
# Processed by: cddbd v1.5.2PL0 Copyright (c) Steve Scherf et al.
# Submitted via: ExactAudioCopyFreeDBPlugin 1.0
#
DISCID=dc0a0e10
DTITLE=Robert Palmer - 2003 - Palmer - Drive
DYEAR=2003
DGENRE=Rock
TTITLE0=Mama Talk To Your Daughter
TTITLE1=Why Get Up
TTITLE2=Who's Fooling Who
TTITLE3=Am I Wrong
TTITLE4=TV Dinners
TTITLE5=Lucky
TTITLE6=Stella
TTITLE7=Dr. Zhivago's Train
TTITLE8=Ain't That Just Like A Woman
TTITLE9=Hound Dog
TTITLE10=Crazy Cajun Cake Walk Band
TTITLE11=I Need Your Love So Bad
TTITLE12=20 Ways (To My Baby's Door)
TTITLE13=It Hurts Me Too
TTITLE14=Stupid Cupid
TTITLE15=Milk Cow's Calf Blues
EXTD=
EXTT0=
EXTT1=
EXTT2=
EXTT3=
EXTT4=
EXTT5=
EXTT6=
EXTT7=
EXTT8=
EXTT9=
EXTT10=
EXTT11=
EXTT12=
EXTT13=
EXTT14=
EXTT15=
PLAYORDER=
